<svg width="586" height="528" viewBox="0 0 586 528" fill="none" xmlns="http://www.w3.org/2000/svg">
<g filter="url(#filter0_b_0_156)">
<rect x="461" y="36" width="125" height="39" fill="white" fill-opacity="0.41"/>
<rect x="461.5" y="36.5" width="124" height="38" stroke="black"/>
</g>
<path d="M497.591 50.848V52.032H492.743V55.792H496.679V56.976H492.743V62H491.287V50.848H497.591ZM500.805 50.16V62H499.349V50.16H500.805ZM502.743 57.584C502.743 56.688 502.924 55.904 503.287 55.232C503.649 54.5493 504.145 54.0213 504.775 53.648C505.415 53.2747 506.124 53.088 506.903 53.088C507.671 53.088 508.337 53.2533 508.903 53.584C509.468 53.9147 509.889 54.3307 510.167 54.832V53.232H511.639V62H510.167V60.368C509.879 60.88 509.447 61.3067 508.871 61.648C508.305 61.9787 507.644 62.144 506.887 62.144C506.108 62.144 505.404 61.952 504.775 61.568C504.145 61.184 503.649 60.6453 503.287 59.952C502.924 59.2587 502.743 58.4693 502.743 57.584ZM510.167 57.6C510.167 56.9387 510.033 56.3627 509.767 55.872C509.5 55.3813 509.137 55.008 508.679 54.752C508.231 54.4853 507.735 54.352 507.191 54.352C506.647 54.352 506.151 54.48 505.703 54.736C505.255 54.992 504.897 55.3653 504.631 55.856C504.364 56.3467 504.231 56.9227 504.231 57.584C504.231 58.256 504.364 58.8427 504.631 59.344C504.897 59.8347 505.255 60.2133 505.703 60.48C506.151 60.736 506.647 60.864 507.191 60.864C507.735 60.864 508.231 60.736 508.679 60.48C509.137 60.2133 509.5 59.8347 509.767 59.344C510.033 58.8427 510.167 58.2613 510.167 57.6ZM515.875 54.432V59.6C515.875 60.0267 515.966 60.3307 516.147 60.512C516.329 60.6827 516.643 60.768 517.091 60.768H518.163V62H516.851C516.041 62 515.433 61.8133 515.027 61.44C514.622 61.0667 514.419 60.4533 514.419 59.6V54.432H513.283V53.232H514.419V51.024H515.875V53.232H518.163V54.432H515.875ZM523.649 56.416C523.649 55.328 523.894 54.352 524.385 53.488C524.876 52.6133 525.542 51.9307 526.385 51.44C527.238 50.9493 528.182 50.704 529.217 50.704C530.433 50.704 531.494 50.9973 532.401 51.584C533.308 52.1707 533.969 53.0027 534.385 54.08H532.641C532.332 53.408 531.884 52.8907 531.297 52.528C530.721 52.1653 530.028 51.984 529.217 51.984C528.438 51.984 527.74 52.1653 527.121 52.528C526.502 52.8907 526.017 53.408 525.665 54.08C525.313 54.7413 525.137 55.52 525.137 56.416C525.137 57.3013 525.313 58.08 525.665 58.752C526.017 59.4133 526.502 59.9253 527.121 60.288C527.74 60.6507 528.438 60.832 529.217 60.832C530.028 60.832 530.721 60.656 531.297 60.304C531.884 59.9413 532.332 59.424 532.641 58.752H534.385C533.969 59.8187 533.308 60.6453 532.401 61.232C531.494 61.808 530.433 62.096 529.217 62.096C528.182 62.096 527.238 61.856 526.385 61.376C525.542 60.8853 524.876 60.208 524.385 59.344C523.894 58.48 523.649 57.504 523.649 56.416ZM536.008 57.584C536.008 56.688 536.19 55.904 536.552 55.232C536.915 54.5493 537.411 54.0213 538.04 53.648C538.68 53.2747 539.39 53.088 540.168 53.088C540.936 53.088 541.603 53.2533 542.168 53.584C542.734 53.9147 543.155 54.3307 543.432 54.832V53.232H544.904V62H543.432V60.368C543.144 60.88 542.712 61.3067 542.136 61.648C541.571 61.9787 540.91 62.144 540.152 62.144C539.374 62.144 538.67 61.952 538.04 61.568C537.411 61.184 536.915 60.6453 536.552 59.952C536.19 59.2587 536.008 58.4693 536.008 57.584ZM543.432 57.6C543.432 56.9387 543.299 56.3627 543.032 55.872C542.766 55.3813 542.403 55.008 541.944 54.752C541.496 54.4853 541 54.352 540.456 54.352C539.912 54.352 539.416 54.48 538.968 54.736C538.52 54.992 538.163 55.3653 537.896 55.856C537.63 56.3467 537.496 56.9227 537.496 57.584C537.496 58.256 537.63 58.8427 537.896 59.344C538.163 59.8347 538.52 60.2133 538.968 60.48C539.416 60.736 539.912 60.864 540.456 60.864C541 60.864 541.496 60.736 541.944 60.48C542.403 60.2133 542.766 59.8347 543.032 59.344C543.299 58.8427 543.432 58.2613 543.432 57.6ZM548.821 54.848C549.109 54.3467 549.535 53.9307 550.101 53.6C550.677 53.2587 551.343 53.088 552.101 53.088C552.879 53.088 553.583 53.2747 554.213 53.648C554.853 54.0213 555.354 54.5493 555.717 55.232C556.079 55.904 556.261 56.688 556.261 57.584C556.261 58.4693 556.079 59.2587 555.717 59.952C555.354 60.6453 554.853 61.184 554.213 61.568C553.583 61.952 552.879 62.144 552.101 62.144C551.354 62.144 550.693 61.9787 550.117 61.648C549.551 61.3067 549.119 60.8853 548.821 60.384V66.16H547.365V53.232H548.821V54.848ZM554.773 57.584C554.773 56.9227 554.639 56.3467 554.373 55.856C554.106 55.3653 553.743 54.992 553.285 54.736C552.837 54.48 552.341 54.352 551.797 54.352C551.263 54.352 550.767 54.4853 550.309 54.752C549.861 55.008 549.498 55.3867 549.221 55.888C548.954 56.3787 548.821 56.9493 548.821 57.6C548.821 58.2613 548.954 58.8427 549.221 59.344C549.498 59.8347 549.861 60.2133 550.309 60.48C550.767 60.736 551.263 60.864 551.797 60.864C552.341 60.864 552.837 60.736 553.285 60.48C553.743 60.2133 554.106 59.8347 554.373 59.344C554.639 58.8427 554.773 58.256 554.773 57.584Z" fill="black"/>
<path d="M380.5 11H441L460.5 30.5" stroke="black"/>
<g filter="url(#filter1_b_0_156)">
<circle cx="366.5" cy="10.5" r="10.5" fill="white" fill-opacity="0.63"/>
<circle cx="366.5" cy="10.5" r="10" stroke="black"/>
</g>
<g filter="url(#filter2_b_0_156)">
<rect x="414" y="217" width="125" height="39" fill="white" fill-opacity="0.41"/>
<rect x="414.5" y="217.5" width="124" height="38" stroke="black"/>
</g>
<path d="M444.129 231.848V243H442.673V237.944H436.993V243H435.537V231.848H436.993V236.744H442.673V231.848H444.129ZM454.391 234.232V243H452.935V241.704C452.657 242.152 452.268 242.504 451.767 242.76C451.276 243.005 450.732 243.128 450.135 243.128C449.452 243.128 448.839 242.989 448.295 242.712C447.751 242.424 447.319 241.997 446.999 241.432C446.689 240.867 446.535 240.179 446.535 239.368V234.232H447.975V239.176C447.975 240.04 448.193 240.707 448.631 241.176C449.068 241.635 449.665 241.864 450.423 241.864C451.201 241.864 451.815 241.624 452.263 241.144C452.711 240.664 452.935 239.965 452.935 239.048V234.232H454.391ZM460.465 234.088C461.223 234.088 461.884 234.253 462.449 234.584C463.025 234.915 463.452 235.331 463.729 235.832V234.232H465.201V243.192C465.201 243.992 465.031 244.701 464.689 245.32C464.348 245.949 463.857 246.44 463.217 246.792C462.588 247.144 461.852 247.32 461.009 247.32C459.857 247.32 458.897 247.048 458.129 246.504C457.361 245.96 456.908 245.219 456.769 244.28H458.209C458.369 244.813 458.7 245.24 459.201 245.56C459.703 245.891 460.305 246.056 461.009 246.056C461.809 246.056 462.46 245.805 462.961 245.304C463.473 244.803 463.729 244.099 463.729 243.192V241.352C463.441 241.864 463.015 242.291 462.449 242.632C461.884 242.973 461.223 243.144 460.465 243.144C459.687 243.144 458.977 242.952 458.337 242.568C457.708 242.184 457.212 241.645 456.849 240.952C456.487 240.259 456.305 239.469 456.305 238.584C456.305 237.688 456.487 236.904 456.849 236.232C457.212 235.549 457.708 235.021 458.337 234.648C458.977 234.275 459.687 234.088 460.465 234.088ZM463.729 238.6C463.729 237.939 463.596 237.363 463.329 236.872C463.063 236.381 462.7 236.008 462.241 235.752C461.793 235.485 461.297 235.352 460.753 235.352C460.209 235.352 459.713 235.48 459.265 235.736C458.817 235.992 458.46 236.365 458.193 236.856C457.927 237.347 457.793 237.923 457.793 238.584C457.793 239.256 457.927 239.843 458.193 240.344C458.46 240.835 458.817 241.213 459.265 241.48C459.713 241.736 460.209 241.864 460.753 241.864C461.297 241.864 461.793 241.736 462.241 241.48C462.7 241.213 463.063 240.835 463.329 240.344C463.596 239.843 463.729 239.261 463.729 238.6ZM471.486 243.144C470.664 243.144 469.918 242.957 469.246 242.584C468.584 242.211 468.062 241.683 467.678 241C467.304 240.307 467.118 239.507 467.118 238.6C467.118 237.704 467.31 236.915 467.694 236.232C468.088 235.539 468.622 235.011 469.294 234.648C469.966 234.275 470.718 234.088 471.55 234.088C472.382 234.088 473.134 234.275 473.806 234.648C474.478 235.011 475.006 235.533 475.39 236.216C475.784 236.899 475.982 237.693 475.982 238.6C475.982 239.507 475.779 240.307 475.374 241C474.979 241.683 474.44 242.211 473.758 242.584C473.075 242.957 472.318 243.144 471.486 243.144ZM471.486 241.864C472.008 241.864 472.499 241.741 472.958 241.496C473.416 241.251 473.784 240.883 474.062 240.392C474.35 239.901 474.494 239.304 474.494 238.6C474.494 237.896 474.355 237.299 474.078 236.808C473.8 236.317 473.438 235.955 472.99 235.72C472.542 235.475 472.056 235.352 471.534 235.352C471 235.352 470.51 235.475 470.062 235.72C469.624 235.955 469.272 236.317 469.006 236.808C468.739 237.299 468.606 237.896 468.606 238.6C468.606 239.315 468.734 239.917 468.99 240.408C469.256 240.899 469.608 241.267 470.046 241.512C470.483 241.747 470.963 241.864 471.486 241.864ZM487.746 237.256C488.151 237.32 488.519 237.485 488.85 237.752C489.191 238.019 489.458 238.349 489.65 238.744C489.852 239.139 489.954 239.56 489.954 240.008C489.954 240.573 489.81 241.085 489.522 241.544C489.234 241.992 488.812 242.349 488.258 242.616C487.714 242.872 487.068 243 486.322 243H482.162V231.848H486.162C486.919 231.848 487.564 231.976 488.098 232.232C488.631 232.477 489.031 232.813 489.298 233.24C489.564 233.667 489.698 234.147 489.698 234.68C489.698 235.341 489.516 235.891 489.154 236.328C488.802 236.755 488.332 237.064 487.746 237.256ZM483.618 236.664H486.066C486.748 236.664 487.276 236.504 487.65 236.184C488.023 235.864 488.21 235.421 488.21 234.856C488.21 234.291 488.023 233.848 487.65 233.528C487.276 233.208 486.738 233.048 486.034 233.048H483.618V236.664ZM486.194 241.8C486.919 241.8 487.484 241.629 487.89 241.288C488.295 240.947 488.498 240.472 488.498 239.864C488.498 239.245 488.284 238.76 487.858 238.408C487.431 238.045 486.86 237.864 486.146 237.864H483.618V241.8H486.194ZM495.798 243.144C494.977 243.144 494.23 242.957 493.558 242.584C492.897 242.211 492.374 241.683 491.99 241C491.617 240.307 491.43 239.507 491.43 238.6C491.43 237.704 491.622 236.915 492.006 236.232C492.401 235.539 492.934 235.011 493.606 234.648C494.278 234.275 495.03 234.088 495.862 234.088C496.694 234.088 497.446 234.275 498.118 234.648C498.79 235.011 499.318 235.533 499.702 236.216C500.097 236.899 500.294 237.693 500.294 238.6C500.294 239.507 500.092 240.307 499.686 241C499.292 241.683 498.753 242.211 498.07 242.584C497.388 242.957 496.63 243.144 495.798 243.144ZM495.798 241.864C496.321 241.864 496.812 241.741 497.27 241.496C497.729 241.251 498.097 240.883 498.374 240.392C498.662 239.901 498.806 239.304 498.806 238.6C498.806 237.896 498.668 237.299 498.39 236.808C498.113 236.317 497.75 235.955 497.302 235.72C496.854 235.475 496.369 235.352 495.846 235.352C495.313 235.352 494.822 235.475 494.374 235.72C493.937 235.955 493.585 236.317 493.318 236.808C493.052 237.299 492.918 237.896 492.918 238.6C492.918 239.315 493.046 239.917 493.302 240.408C493.569 240.899 493.921 241.267 494.358 241.512C494.796 241.747 495.276 241.864 495.798 241.864ZM505.313 243.144C504.641 243.144 504.038 243.032 503.505 242.808C502.971 242.573 502.55 242.253 502.241 241.848C501.931 241.432 501.761 240.957 501.729 240.424H503.233C503.275 240.861 503.478 241.219 503.841 241.496C504.214 241.773 504.699 241.912 505.297 241.912C505.851 241.912 506.289 241.789 506.609 241.544C506.929 241.299 507.089 240.989 507.089 240.616C507.089 240.232 506.918 239.949 506.577 239.768C506.235 239.576 505.707 239.389 504.993 239.208C504.342 239.037 503.809 238.867 503.393 238.696C502.987 238.515 502.635 238.253 502.337 237.912C502.049 237.56 501.905 237.101 501.905 236.536C501.905 236.088 502.038 235.677 502.305 235.304C502.571 234.931 502.95 234.637 503.441 234.424C503.931 234.2 504.491 234.088 505.121 234.088C506.091 234.088 506.875 234.333 507.473 234.824C508.07 235.315 508.39 235.987 508.433 236.84H506.977C506.945 236.381 506.758 236.013 506.417 235.736C506.086 235.459 505.638 235.32 505.073 235.32C504.55 235.32 504.134 235.432 503.825 235.656C503.515 235.88 503.361 236.173 503.361 236.536C503.361 236.824 503.451 237.064 503.633 237.256C503.825 237.437 504.059 237.587 504.337 237.704C504.625 237.811 505.019 237.933 505.521 238.072C506.15 238.243 506.662 238.413 507.057 238.584C507.451 238.744 507.787 238.989 508.065 239.32C508.353 239.651 508.502 240.083 508.513 240.616C508.513 241.096 508.379 241.528 508.113 241.912C507.846 242.296 507.467 242.6 506.977 242.824C506.497 243.037 505.942 243.144 505.313 243.144ZM513.672 243.144C513 243.144 512.397 243.032 511.864 242.808C511.331 242.573 510.909 242.253 510.6 241.848C510.291 241.432 510.12 240.957 510.088 240.424H511.592C511.635 240.861 511.837 241.219 512.2 241.496C512.573 241.773 513.059 241.912 513.656 241.912C514.211 241.912 514.648 241.789 514.968 241.544C515.288 241.299 515.448 240.989 515.448 240.616C515.448 240.232 515.277 239.949 514.936 239.768C514.595 239.576 514.067 239.389 513.352 239.208C512.701 239.037 512.168 238.867 511.752 238.696C511.347 238.515 510.995 238.253 510.696 237.912C510.408 237.56 510.264 237.101 510.264 236.536C510.264 236.088 510.397 235.677 510.664 235.304C510.931 234.931 511.309 234.637 511.8 234.424C512.291 234.2 512.851 234.088 513.48 234.088C514.451 234.088 515.235 234.333 515.832 234.824C516.429 235.315 516.749 235.987 516.792 236.84H515.336C515.304 236.381 515.117 236.013 514.776 235.736C514.445 235.459 513.997 235.32 513.432 235.32C512.909 235.32 512.493 235.432 512.184 235.656C511.875 235.88 511.72 236.173 511.72 236.536C511.72 236.824 511.811 237.064 511.992 237.256C512.184 237.437 512.419 237.587 512.696 237.704C512.984 237.811 513.379 237.933 513.88 238.072C514.509 238.243 515.021 238.413 515.416 238.584C515.811 238.744 516.147 238.989 516.424 239.32C516.712 239.651 516.861 240.083 516.872 240.616C516.872 241.096 516.739 241.528 516.472 241.912C516.205 242.296 515.827 242.6 515.336 242.824C514.856 243.037 514.301 243.144 513.672 243.144Z" fill="black"/>
<path d="M333.5 192H394L413.5 211.5" stroke="black"/>
<g filter="url(#filter3_b_0_156)">
<circle cx="319.5" cy="191.5" r="10.5" fill="white" fill-opacity="0.63"/>
<circle cx="319.5" cy="191.5" r="10" stroke="black"/>
</g>
<g filter="url(#filter4_b_0_156)">
<rect x="418" y="489" width="125" height="39" fill="white" fill-opacity="0.41"/>
<rect x="418.5" y="489.5" width="124" height="38" stroke="black"/>
</g>
<path d="M454.932 515.112C454.196 515.112 453.535 514.984 452.948 514.728C452.372 514.461 451.919 514.099 451.588 513.64C451.257 513.171 451.087 512.632 451.076 512.024H452.628C452.681 512.547 452.895 512.989 453.268 513.352C453.652 513.704 454.207 513.88 454.932 513.88C455.625 513.88 456.169 513.709 456.564 513.368C456.969 513.016 457.172 512.568 457.172 512.024C457.172 511.597 457.055 511.251 456.82 510.984C456.585 510.717 456.292 510.515 455.94 510.376C455.588 510.237 455.113 510.088 454.516 509.928C453.78 509.736 453.188 509.544 452.74 509.352C452.303 509.16 451.924 508.861 451.604 508.456C451.295 508.04 451.14 507.485 451.14 506.792C451.14 506.184 451.295 505.645 451.604 505.176C451.913 504.707 452.345 504.344 452.9 504.088C453.465 503.832 454.111 503.704 454.836 503.704C455.881 503.704 456.735 503.965 457.396 504.488C458.068 505.011 458.447 505.704 458.532 506.568H456.932C456.879 506.141 456.655 505.768 456.26 505.448C455.865 505.117 455.343 504.952 454.692 504.952C454.084 504.952 453.588 505.112 453.204 505.432C452.82 505.741 452.628 506.179 452.628 506.744C452.628 507.149 452.74 507.48 452.964 507.736C453.199 507.992 453.481 508.189 453.812 508.328C454.153 508.456 454.628 508.605 455.236 508.776C455.972 508.979 456.564 509.181 457.012 509.384C457.46 509.576 457.844 509.88 458.164 510.296C458.484 510.701 458.644 511.256 458.644 511.96C458.644 512.504 458.5 513.016 458.212 513.496C457.924 513.976 457.497 514.365 456.932 514.664C456.367 514.963 455.7 515.112 454.932 515.112ZM460.243 510.584C460.243 509.688 460.424 508.904 460.787 508.232C461.149 507.549 461.645 507.021 462.275 506.648C462.915 506.275 463.624 506.088 464.403 506.088C465.171 506.088 465.837 506.253 466.403 506.584C466.968 506.915 467.389 507.331 467.667 507.832V506.232H469.139V515H467.667V513.368C467.379 513.88 466.947 514.307 466.371 514.648C465.805 514.979 465.144 515.144 464.387 515.144C463.608 515.144 462.904 514.952 462.275 514.568C461.645 514.184 461.149 513.645 460.787 512.952C460.424 512.259 460.243 511.469 460.243 510.584ZM467.667 510.6C467.667 509.939 467.533 509.363 467.267 508.872C467 508.381 466.637 508.008 466.179 507.752C465.731 507.485 465.235 507.352 464.691 507.352C464.147 507.352 463.651 507.48 463.203 507.736C462.755 507.992 462.397 508.365 462.131 508.856C461.864 509.347 461.731 509.923 461.731 510.584C461.731 511.256 461.864 511.843 462.131 512.344C462.397 512.835 462.755 513.213 463.203 513.48C463.651 513.736 464.147 513.864 464.691 513.864C465.235 513.864 465.731 513.736 466.179 513.48C466.637 513.213 467 512.835 467.267 512.344C467.533 511.843 467.667 511.261 467.667 510.6ZM475.871 506.072C476.938 506.072 477.802 506.397 478.463 507.048C479.125 507.688 479.455 508.616 479.455 509.832V515H478.015V510.04C478.015 509.165 477.797 508.499 477.359 508.04C476.922 507.571 476.325 507.336 475.567 507.336C474.799 507.336 474.186 507.576 473.727 508.056C473.279 508.536 473.055 509.235 473.055 510.152V515H471.599V506.232H473.055V507.48C473.343 507.032 473.733 506.685 474.223 506.44C474.725 506.195 475.274 506.072 475.871 506.072ZM483.61 507.432V512.6C483.61 513.027 483.7 513.331 483.882 513.512C484.063 513.683 484.378 513.768 484.826 513.768H485.898V515H484.586C483.775 515 483.167 514.813 482.762 514.44C482.356 514.067 482.154 513.453 482.154 512.6V507.432H481.018V506.232H482.154V504.024H483.61V506.232H485.898V507.432H483.61ZM491.486 515.144C490.664 515.144 489.918 514.957 489.246 514.584C488.584 514.211 488.062 513.683 487.678 513C487.304 512.307 487.118 511.507 487.118 510.6C487.118 509.704 487.31 508.915 487.694 508.232C488.088 507.539 488.622 507.011 489.294 506.648C489.966 506.275 490.718 506.088 491.55 506.088C492.382 506.088 493.134 506.275 493.806 506.648C494.478 507.011 495.006 507.533 495.39 508.216C495.784 508.899 495.982 509.693 495.982 510.6C495.982 511.507 495.779 512.307 495.374 513C494.979 513.683 494.44 514.211 493.758 514.584C493.075 514.957 492.318 515.144 491.486 515.144ZM491.486 513.864C492.008 513.864 492.499 513.741 492.958 513.496C493.416 513.251 493.784 512.883 494.062 512.392C494.35 511.901 494.494 511.304 494.494 510.6C494.494 509.896 494.355 509.299 494.078 508.808C493.8 508.317 493.438 507.955 492.99 507.72C492.542 507.475 492.056 507.352 491.534 507.352C491 507.352 490.51 507.475 490.062 507.72C489.624 507.955 489.272 508.317 489.006 508.808C488.739 509.299 488.606 509.896 488.606 510.6C488.606 511.315 488.734 511.917 488.99 512.408C489.256 512.899 489.608 513.267 490.046 513.512C490.483 513.747 490.963 513.864 491.486 513.864ZM502.168 506.072C503.235 506.072 504.099 506.397 504.76 507.048C505.421 507.688 505.752 508.616 505.752 509.832V515H504.312V510.04C504.312 509.165 504.093 508.499 503.656 508.04C503.219 507.571 502.621 507.336 501.864 507.336C501.096 507.336 500.483 507.576 500.024 508.056C499.576 508.536 499.352 509.235 499.352 510.152V515H497.896V506.232H499.352V507.48C499.64 507.032 500.029 506.685 500.52 506.44C501.021 506.195 501.571 506.072 502.168 506.072ZM508.882 504.808C508.605 504.808 508.37 504.712 508.178 504.52C507.986 504.328 507.89 504.093 507.89 503.816C507.89 503.539 507.986 503.304 508.178 503.112C508.37 502.92 508.605 502.824 508.882 502.824C509.149 502.824 509.373 502.92 509.554 503.112C509.746 503.304 509.842 503.539 509.842 503.816C509.842 504.093 509.746 504.328 509.554 504.52C509.373 504.712 509.149 504.808 508.882 504.808ZM509.586 506.232V515H508.13V506.232H509.586Z" fill="black"/>
<path d="M337.5 464H398L417.5 483.5" stroke="black"/>
<g filter="url(#filter5_b_0_156)">
<circle cx="323.5" cy="463.5" r="10.5" fill="white" fill-opacity="0.63"/>
<circle cx="323.5" cy="463.5" r="10" stroke="black"/>
</g>
<g filter="url(#filter6_b_0_156)">
<rect x="44" y="148" width="125" height="39" fill="white" fill-opacity="0.41"/>
<rect x="44.5" y="148.5" width="124" height="38" stroke="black"/>
</g>
<path d="M67.9399 174.112C67.2039 174.112 66.5425 173.984 65.9559 173.728C65.3799 173.461 64.9265 173.099 64.5959 172.64C64.2652 172.171 64.0945 171.632 64.0839 171.024H65.6359C65.6892 171.547 65.9025 171.989 66.2759 172.352C66.6599 172.704 67.2145 172.88 67.9399 172.88C68.6332 172.88 69.1772 172.709 69.5719 172.368C69.9772 172.016 70.1799 171.568 70.1799 171.024C70.1799 170.597 70.0625 170.251 69.8279 169.984C69.5932 169.717 69.2999 169.515 68.9479 169.376C68.5959 169.237 68.1212 169.088 67.5239 168.928C66.7879 168.736 66.1959 168.544 65.7479 168.352C65.3105 168.16 64.9319 167.861 64.6119 167.456C64.3025 167.04 64.1479 166.485 64.1479 165.792C64.1479 165.184 64.3025 164.645 64.6119 164.176C64.9212 163.707 65.3532 163.344 65.9079 163.088C66.4732 162.832 67.1185 162.704 67.8439 162.704C68.8892 162.704 69.7425 162.965 70.4039 163.488C71.0759 164.011 71.4545 164.704 71.5399 165.568H69.9399C69.8865 165.141 69.6625 164.768 69.2679 164.448C68.8732 164.117 68.3505 163.952 67.6999 163.952C67.0919 163.952 66.5959 164.112 66.2119 164.432C65.8279 164.741 65.6359 165.179 65.6359 165.744C65.6359 166.149 65.7479 166.48 65.9719 166.736C66.2065 166.992 66.4892 167.189 66.8199 167.328C67.1612 167.456 67.6359 167.605 68.2439 167.776C68.9799 167.979 69.5719 168.181 70.0199 168.384C70.4679 168.576 70.8519 168.88 71.1719 169.296C71.4919 169.701 71.6519 170.256 71.6519 170.96C71.6519 171.504 71.5079 172.016 71.2199 172.496C70.9319 172.976 70.5052 173.365 69.9399 173.664C69.3745 173.963 68.7079 174.112 67.9399 174.112ZM81.5705 165.232V174H80.1145V172.704C79.8372 173.152 79.4478 173.504 78.9465 173.76C78.4558 174.005 77.9118 174.128 77.3145 174.128C76.6318 174.128 76.0185 173.989 75.4745 173.712C74.9305 173.424 74.4985 172.997 74.1785 172.432C73.8692 171.867 73.7145 171.179 73.7145 170.368V165.232H75.1545V170.176C75.1545 171.04 75.3732 171.707 75.8105 172.176C76.2478 172.635 76.8452 172.864 77.6025 172.864C78.3812 172.864 78.9945 172.624 79.4425 172.144C79.8905 171.664 80.1145 170.965 80.1145 170.048V165.232H81.5705ZM87.1329 174.144C86.4609 174.144 85.8582 174.032 85.3249 173.808C84.7915 173.573 84.3702 173.253 84.0609 172.848C83.7515 172.432 83.5809 171.957 83.5489 171.424H85.0529C85.0955 171.861 85.2982 172.219 85.6609 172.496C86.0342 172.773 86.5195 172.912 87.1169 172.912C87.6715 172.912 88.1089 172.789 88.4289 172.544C88.7489 172.299 88.9089 171.989 88.9089 171.616C88.9089 171.232 88.7382 170.949 88.3969 170.768C88.0555 170.576 87.5275 170.389 86.8129 170.208C86.1622 170.037 85.6289 169.867 85.2129 169.696C84.8075 169.515 84.4555 169.253 84.1569 168.912C83.8689 168.56 83.7249 168.101 83.7249 167.536C83.7249 167.088 83.8582 166.677 84.1249 166.304C84.3915 165.931 84.7702 165.637 85.2609 165.424C85.7515 165.2 86.3115 165.088 86.9409 165.088C87.9115 165.088 88.6955 165.333 89.2929 165.824C89.8902 166.315 90.2102 166.987 90.2529 167.84H88.7969C88.7649 167.381 88.5782 167.013 88.2369 166.736C87.9062 166.459 87.4582 166.32 86.8929 166.32C86.3702 166.32 85.9542 166.432 85.6449 166.656C85.3355 166.88 85.1809 167.173 85.1809 167.536C85.1809 167.824 85.2715 168.064 85.4529 168.256C85.6449 168.437 85.8795 168.587 86.1569 168.704C86.4449 168.811 86.8395 168.933 87.3409 169.072C87.9702 169.243 88.4822 169.413 88.8769 169.584C89.2715 169.744 89.6075 169.989 89.8849 170.32C90.1729 170.651 90.3222 171.083 90.3329 171.616C90.3329 172.096 90.1995 172.528 89.9329 172.912C89.6662 173.296 89.2875 173.6 88.7969 173.824C88.3169 174.037 87.7622 174.144 87.1329 174.144ZM93.8443 166.848C94.1323 166.347 94.5589 165.931 95.1243 165.6C95.7003 165.259 96.3669 165.088 97.1243 165.088C97.9029 165.088 98.6069 165.275 99.2362 165.648C99.8762 166.021 100.378 166.549 100.74 167.232C101.103 167.904 101.284 168.688 101.284 169.584C101.284 170.469 101.103 171.259 100.74 171.952C100.378 172.645 99.8762 173.184 99.2362 173.568C98.6069 173.952 97.9029 174.144 97.1243 174.144C96.3776 174.144 95.7163 173.979 95.1403 173.648C94.5749 173.307 94.1429 172.885 93.8443 172.384V178.16H92.3883V165.232H93.8443V166.848ZM99.7963 169.584C99.7963 168.923 99.6629 168.347 99.3963 167.856C99.1296 167.365 98.7669 166.992 98.3083 166.736C97.8603 166.48 97.3643 166.352 96.8203 166.352C96.2869 166.352 95.7909 166.485 95.3323 166.752C94.8843 167.008 94.5216 167.387 94.2443 167.888C93.9776 168.379 93.8443 168.949 93.8443 169.6C93.8443 170.261 93.9776 170.843 94.2443 171.344C94.5216 171.835 94.8843 172.213 95.3323 172.48C95.7909 172.736 96.2869 172.864 96.8203 172.864C97.3643 172.864 97.8603 172.736 98.3083 172.48C98.7669 172.213 99.1296 171.835 99.3963 171.344C99.6629 170.843 99.7963 170.256 99.7963 169.584ZM111.201 169.28C111.201 169.557 111.185 169.851 111.153 170.16H104.145C104.198 171.024 104.491 171.701 105.025 172.192C105.569 172.672 106.225 172.912 106.993 172.912C107.622 172.912 108.145 172.768 108.561 172.48C108.987 172.181 109.286 171.787 109.457 171.296H111.025C110.79 172.139 110.321 172.827 109.617 173.36C108.913 173.883 108.038 174.144 106.993 174.144C106.161 174.144 105.414 173.957 104.753 173.584C104.102 173.211 103.59 172.683 103.217 172C102.843 171.307 102.657 170.507 102.657 169.6C102.657 168.693 102.838 167.899 103.201 167.216C103.563 166.533 104.07 166.011 104.721 165.648C105.382 165.275 106.139 165.088 106.993 165.088C107.825 165.088 108.561 165.269 109.201 165.632C109.841 165.995 110.331 166.496 110.673 167.136C111.025 167.765 111.201 168.48 111.201 169.28ZM109.697 168.976C109.697 168.421 109.574 167.947 109.329 167.552C109.083 167.147 108.747 166.843 108.321 166.64C107.905 166.427 107.441 166.32 106.929 166.32C106.193 166.32 105.563 166.555 105.041 167.024C104.529 167.493 104.235 168.144 104.161 168.976H109.697ZM117.395 165.072C118.461 165.072 119.325 165.397 119.987 166.048C120.648 166.688 120.979 167.616 120.979 168.832V174H119.539V169.04C119.539 168.165 119.32 167.499 118.883 167.04C118.445 166.571 117.848 166.336 117.091 166.336C116.323 166.336 115.709 166.576 115.251 167.056C114.803 167.536 114.579 168.235 114.579 169.152V174H113.123V165.232H114.579V166.48C114.867 166.032 115.256 165.685 115.747 165.44C116.248 165.195 116.797 165.072 117.395 165.072ZM122.813 169.584C122.813 168.688 122.994 167.904 123.357 167.232C123.72 166.549 124.216 166.021 124.845 165.648C125.485 165.275 126.2 165.088 126.989 165.088C127.672 165.088 128.306 165.248 128.893 165.568C129.48 165.877 129.928 166.288 130.237 166.8V162.16H131.709V174H130.237V172.352C129.949 172.875 129.522 173.307 128.957 173.648C128.392 173.979 127.73 174.144 126.973 174.144C126.194 174.144 125.485 173.952 124.845 173.568C124.216 173.184 123.72 172.645 123.357 171.952C122.994 171.259 122.813 170.469 122.813 169.584ZM130.237 169.6C130.237 168.939 130.104 168.363 129.837 167.872C129.57 167.381 129.208 167.008 128.749 166.752C128.301 166.485 127.805 166.352 127.261 166.352C126.717 166.352 126.221 166.48 125.773 166.736C125.325 166.992 124.968 167.365 124.701 167.856C124.434 168.347 124.301 168.923 124.301 169.584C124.301 170.256 124.434 170.843 124.701 171.344C124.968 171.835 125.325 172.213 125.773 172.48C126.221 172.736 126.717 172.864 127.261 172.864C127.805 172.864 128.301 172.736 128.749 172.48C129.208 172.213 129.57 171.835 129.837 171.344C130.104 170.843 130.237 170.261 130.237 169.6ZM142.17 169.28C142.17 169.557 142.154 169.851 142.122 170.16H135.114C135.167 171.024 135.46 171.701 135.994 172.192C136.538 172.672 137.194 172.912 137.962 172.912C138.591 172.912 139.114 172.768 139.53 172.48C139.956 172.181 140.255 171.787 140.426 171.296H141.994C141.759 172.139 141.29 172.827 140.586 173.36C139.882 173.883 139.007 174.144 137.962 174.144C137.13 174.144 136.383 173.957 135.722 173.584C135.071 173.211 134.559 172.683 134.186 172C133.812 171.307 133.626 170.507 133.626 169.6C133.626 168.693 133.807 167.899 134.17 167.216C134.532 166.533 135.039 166.011 135.69 165.648C136.351 165.275 137.108 165.088 137.962 165.088C138.794 165.088 139.53 165.269 140.17 165.632C140.81 165.995 141.3 166.496 141.642 167.136C141.994 167.765 142.17 168.48 142.17 169.28ZM140.666 168.976C140.666 168.421 140.543 167.947 140.298 167.552C140.052 167.147 139.716 166.843 139.29 166.64C138.874 166.427 138.41 166.32 137.898 166.32C137.162 166.32 136.532 166.555 136.01 167.024C135.498 167.493 135.204 168.144 135.13 168.976H140.666ZM145.547 166.656C145.803 166.155 146.166 165.765 146.635 165.488C147.115 165.211 147.697 165.072 148.379 165.072V166.576H147.995C146.363 166.576 145.547 167.461 145.547 169.232V174H144.091V165.232H145.547V166.656Z" fill="black"/>
<path d="M269 125H148.5L129 144.5" stroke="black"/>
<g filter="url(#filter7_b_0_156)">
<circle cx="10.5" cy="10.5" r="10.5" transform="matrix(-1 0 0 1 293.5 114)" fill="white" fill-opacity="0.63"/>
<circle cx="10.5" cy="10.5" r="10" transform="matrix(-1 0 0 1 293.5 114)" stroke="black"/>
</g>
<g filter="url(#filter8_b_0_156)">
<rect y="314" width="125" height="39" fill="white" fill-opacity="0.41"/>
<rect x="0.5" y="314.5" width="124" height="38" stroke="black"/>
</g>
<path d="M30.1287 328.848V340H28.6727V334.944H22.9927V340H21.5367V328.848H22.9927V333.744H28.6727V328.848H30.1287ZM40.3908 331.232V340H38.9348V338.704C38.6575 339.152 38.2681 339.504 37.7668 339.76C37.2761 340.005 36.7321 340.128 36.1348 340.128C35.4521 340.128 34.8388 339.989 34.2948 339.712C33.7508 339.424 33.3188 338.997 32.9988 338.432C32.6895 337.867 32.5348 337.179 32.5348 336.368V331.232H33.9748V336.176C33.9748 337.04 34.1935 337.707 34.6308 338.176C35.0681 338.635 35.6655 338.864 36.4228 338.864C37.2015 338.864 37.8148 338.624 38.2628 338.144C38.7108 337.664 38.9348 336.965 38.9348 336.048V331.232H40.3908ZM46.4652 331.088C47.2225 331.088 47.8839 331.253 48.4492 331.584C49.0252 331.915 49.4519 332.331 49.7292 332.832V331.232H51.2012V340.192C51.2012 340.992 51.0305 341.701 50.6892 342.32C50.3479 342.949 49.8572 343.44 49.2172 343.792C48.5879 344.144 47.8519 344.32 47.0092 344.32C45.8572 344.32 44.8972 344.048 44.1292 343.504C43.3612 342.96 42.9079 342.219 42.7692 341.28H44.2092C44.3692 341.813 44.6999 342.24 45.2012 342.56C45.7025 342.891 46.3052 343.056 47.0092 343.056C47.8092 343.056 48.4599 342.805 48.9612 342.304C49.4732 341.803 49.7292 341.099 49.7292 340.192V338.352C49.4412 338.864 49.0145 339.291 48.4492 339.632C47.8839 339.973 47.2225 340.144 46.4652 340.144C45.6865 340.144 44.9772 339.952 44.3372 339.568C43.7079 339.184 43.2119 338.645 42.8492 337.952C42.4865 337.259 42.3052 336.469 42.3052 335.584C42.3052 334.688 42.4865 333.904 42.8492 333.232C43.2119 332.549 43.7079 332.021 44.3372 331.648C44.9772 331.275 45.6865 331.088 46.4652 331.088ZM49.7292 335.6C49.7292 334.939 49.5959 334.363 49.3292 333.872C49.0625 333.381 48.6999 333.008 48.2412 332.752C47.7932 332.485 47.2972 332.352 46.7532 332.352C46.2092 332.352 45.7132 332.48 45.2652 332.736C44.8172 332.992 44.4599 333.365 44.1932 333.856C43.9265 334.347 43.7932 334.923 43.7932 335.584C43.7932 336.256 43.9265 336.843 44.1932 337.344C44.4599 337.835 44.8172 338.213 45.2652 338.48C45.7132 338.736 46.2092 338.864 46.7532 338.864C47.2972 338.864 47.7932 338.736 48.2412 338.48C48.6999 338.213 49.0625 337.835 49.3292 337.344C49.5959 336.843 49.7292 336.261 49.7292 335.6ZM57.4857 340.144C56.6644 340.144 55.9177 339.957 55.2457 339.584C54.5844 339.211 54.0617 338.683 53.6777 338C53.3044 337.307 53.1177 336.507 53.1177 335.6C53.1177 334.704 53.3097 333.915 53.6937 333.232C54.0884 332.539 54.6217 332.011 55.2937 331.648C55.9657 331.275 56.7177 331.088 57.5497 331.088C58.3817 331.088 59.1337 331.275 59.8057 331.648C60.4777 332.011 61.0057 332.533 61.3897 333.216C61.7844 333.899 61.9817 334.693 61.9817 335.6C61.9817 336.507 61.779 337.307 61.3737 338C60.979 338.683 60.4404 339.211 59.7577 339.584C59.075 339.957 58.3177 340.144 57.4857 340.144ZM57.4857 338.864C58.0084 338.864 58.499 338.741 58.9577 338.496C59.4164 338.251 59.7844 337.883 60.0617 337.392C60.3497 336.901 60.4937 336.304 60.4937 335.6C60.4937 334.896 60.355 334.299 60.0777 333.808C59.8004 333.317 59.4377 332.955 58.9897 332.72C58.5417 332.475 58.0564 332.352 57.5337 332.352C57.0004 332.352 56.5097 332.475 56.0617 332.72C55.6244 332.955 55.2724 333.317 55.0057 333.808C54.739 334.299 54.6057 334.896 54.6057 335.6C54.6057 336.315 54.7337 336.917 54.9897 337.408C55.2564 337.899 55.6084 338.267 56.0457 338.512C56.483 338.747 56.963 338.864 57.4857 338.864ZM73.7457 334.256C74.151 334.32 74.519 334.485 74.8497 334.752C75.191 335.019 75.4577 335.349 75.6497 335.744C75.8524 336.139 75.9537 336.56 75.9537 337.008C75.9537 337.573 75.8097 338.085 75.5217 338.544C75.2337 338.992 74.8124 339.349 74.2577 339.616C73.7137 339.872 73.0684 340 72.3217 340H68.1617V328.848H72.1617C72.919 328.848 73.5644 328.976 74.0977 329.232C74.631 329.477 75.031 329.813 75.2977 330.24C75.5644 330.667 75.6977 331.147 75.6977 331.68C75.6977 332.341 75.5164 332.891 75.1537 333.328C74.8017 333.755 74.3324 334.064 73.7457 334.256ZM69.6177 333.664H72.0657C72.7484 333.664 73.2764 333.504 73.6497 333.184C74.023 332.864 74.2097 332.421 74.2097 331.856C74.2097 331.291 74.023 330.848 73.6497 330.528C73.2764 330.208 72.7377 330.048 72.0337 330.048H69.6177V333.664ZM72.1937 338.8C72.919 338.8 73.4844 338.629 73.8897 338.288C74.295 337.947 74.4977 337.472 74.4977 336.864C74.4977 336.245 74.2844 335.76 73.8577 335.408C73.431 335.045 72.8604 334.864 72.1457 334.864H69.6177V338.8H72.1937ZM81.7982 340.144C80.9769 340.144 80.2302 339.957 79.5582 339.584C78.8969 339.211 78.3742 338.683 77.9902 338C77.6169 337.307 77.4302 336.507 77.4302 335.6C77.4302 334.704 77.6222 333.915 78.0062 333.232C78.4009 332.539 78.9342 332.011 79.6062 331.648C80.2782 331.275 81.0302 331.088 81.8622 331.088C82.6942 331.088 83.4462 331.275 84.1182 331.648C84.7902 332.011 85.3182 332.533 85.7022 333.216C86.0969 333.899 86.2942 334.693 86.2942 335.6C86.2942 336.507 86.0915 337.307 85.6862 338C85.2915 338.683 84.7529 339.211 84.0702 339.584C83.3875 339.957 82.6302 340.144 81.7982 340.144ZM81.7982 338.864C82.3209 338.864 82.8115 338.741 83.2702 338.496C83.7289 338.251 84.0969 337.883 84.3742 337.392C84.6622 336.901 84.8062 336.304 84.8062 335.6C84.8062 334.896 84.6675 334.299 84.3902 333.808C84.1129 333.317 83.7502 332.955 83.3022 332.72C82.8542 332.475 82.3689 332.352 81.8462 332.352C81.3129 332.352 80.8222 332.475 80.3742 332.72C79.9369 332.955 79.5849 333.317 79.3182 333.808C79.0515 334.299 78.9182 334.896 78.9182 335.6C78.9182 336.315 79.0462 336.917 79.3022 337.408C79.5689 337.899 79.9209 338.267 80.3582 338.512C80.7955 338.747 81.2755 338.864 81.7982 338.864ZM91.3126 340.144C90.6406 340.144 90.0379 340.032 89.5046 339.808C88.9712 339.573 88.5499 339.253 88.2406 338.848C87.9312 338.432 87.7606 337.957 87.7286 337.424H89.2326C89.2752 337.861 89.4779 338.219 89.8406 338.496C90.2139 338.773 90.6992 338.912 91.2966 338.912C91.8512 338.912 92.2886 338.789 92.6086 338.544C92.9286 338.299 93.0886 337.989 93.0886 337.616C93.0886 337.232 92.9179 336.949 92.5766 336.768C92.2352 336.576 91.7072 336.389 90.9926 336.208C90.3419 336.037 89.8086 335.867 89.3926 335.696C88.9872 335.515 88.6352 335.253 88.3366 334.912C88.0486 334.56 87.9046 334.101 87.9046 333.536C87.9046 333.088 88.0379 332.677 88.3046 332.304C88.5712 331.931 88.9499 331.637 89.4406 331.424C89.9312 331.2 90.4912 331.088 91.1206 331.088C92.0912 331.088 92.8752 331.333 93.4726 331.824C94.0699 332.315 94.3899 332.987 94.4326 333.84H92.9766C92.9446 333.381 92.7579 333.013 92.4166 332.736C92.0859 332.459 91.6379 332.32 91.0726 332.32C90.5499 332.32 90.1339 332.432 89.8246 332.656C89.5152 332.88 89.3606 333.173 89.3606 333.536C89.3606 333.824 89.4512 334.064 89.6326 334.256C89.8246 334.437 90.0592 334.587 90.3366 334.704C90.6246 334.811 91.0192 334.933 91.5206 335.072C92.1499 335.243 92.6619 335.413 93.0566 335.584C93.4512 335.744 93.7872 335.989 94.0646 336.32C94.3526 336.651 94.5019 337.083 94.5126 337.616C94.5126 338.096 94.3792 338.528 94.1126 338.912C93.8459 339.296 93.4672 339.6 92.9766 339.824C92.4966 340.037 91.9419 340.144 91.3126 340.144ZM99.6719 340.144C98.9999 340.144 98.3973 340.032 97.8639 339.808C97.3306 339.573 96.9093 339.253 96.5999 338.848C96.2906 338.432 96.1199 337.957 96.0879 337.424H97.5919C97.6346 337.861 97.8373 338.219 98.1999 338.496C98.5733 338.773 99.0586 338.912 99.6559 338.912C100.211 338.912 100.648 338.789 100.968 338.544C101.288 338.299 101.448 337.989 101.448 337.616C101.448 337.232 101.277 336.949 100.936 336.768C100.595 336.576 100.067 336.389 99.3519 336.208C98.7013 336.037 98.1679 335.867 97.7519 335.696C97.3466 335.515 96.9946 335.253 96.6959 334.912C96.4079 334.56 96.2639 334.101 96.2639 333.536C96.2639 333.088 96.3973 332.677 96.6639 332.304C96.9306 331.931 97.3093 331.637 97.7999 331.424C98.2906 331.2 98.8506 331.088 99.4799 331.088C100.451 331.088 101.235 331.333 101.832 331.824C102.429 332.315 102.749 332.987 102.792 333.84H101.336C101.304 333.381 101.117 333.013 100.776 332.736C100.445 332.459 99.9973 332.32 99.4319 332.32C98.9093 332.32 98.4933 332.432 98.1839 332.656C97.8746 332.88 97.7199 333.173 97.7199 333.536C97.7199 333.824 97.8106 334.064 97.9919 334.256C98.1839 334.437 98.4186 334.587 98.6959 334.704C98.9839 334.811 99.3786 334.933 99.8799 335.072C100.509 335.243 101.021 335.413 101.416 335.584C101.811 335.744 102.147 335.989 102.424 336.32C102.712 336.651 102.861 337.083 102.872 337.616C102.872 338.096 102.739 338.528 102.472 338.912C102.205 339.296 101.827 339.6 101.336 339.824C100.856 340.037 100.301 340.144 99.6719 340.144Z" fill="black"/>
<path d="M225 291H104.5L85 310.5" stroke="black"/>
<g filter="url(#filter9_b_0_156)">
<circle cx="10.5" cy="10.5" r="10.5" transform="matrix(-1 0 0 1 249.5 280)" fill="white" fill-opacity="0.63"/>
<circle cx="10.5" cy="10.5" r="10" transform="matrix(-1 0 0 1 249.5 280)" stroke="black"/>
</g>
<defs>
<filter id="filter0_b_0_156" x="449" y="24" width="149" height="63" filterUnits="userSpaceOnUse" color-interpolation-filters="sRGB">
<feFlood flood-opacity="0" result="BackgroundImageFix"/>
<feGaussianBlur in="BackgroundImageFix" stdDeviation="6"/>
<feComposite in2="SourceAlpha" operator="in" result="effect1_backgroundBlur_0_156"/>
<feBlend mode="normal" in="SourceGraphic" in2="effect1_backgroundBlur_0_156" result="shape"/>
</filter>
<filter id="filter1_b_0_156" x="336" y="-20" width="61" height="61" filterUnits="userSpaceOnUse" color-interpolation-filters="sRGB">
<feFlood flood-opacity="0" result="BackgroundImageFix"/>
<feGaussianBlur in="BackgroundImageFix" stdDeviation="10"/>
<feComposite in2="SourceAlpha" operator="in" result="effect1_backgroundBlur_0_156"/>
<feBlend mode="normal" in="SourceGraphic" in2="effect1_backgroundBlur_0_156" result="shape"/>
</filter>
<filter id="filter2_b_0_156" x="402" y="205" width="149" height="63" filterUnits="userSpaceOnUse" color-interpolation-filters="sRGB">
<feFlood flood-opacity="0" result="BackgroundImageFix"/>
<feGaussianBlur in="BackgroundImageFix" stdDeviation="6"/>
<feComposite in2="SourceAlpha" operator="in" result="effect1_backgroundBlur_0_156"/>
<feBlend mode="normal" in="SourceGraphic" in2="effect1_backgroundBlur_0_156" result="shape"/>
</filter>
<filter id="filter3_b_0_156" x="289" y="161" width="61" height="61" filterUnits="userSpaceOnUse" color-interpolation-filters="sRGB">
<feFlood flood-opacity="0" result="BackgroundImageFix"/>
<feGaussianBlur in="BackgroundImageFix" stdDeviation="10"/>
<feComposite in2="SourceAlpha" operator="in" result="effect1_backgroundBlur_0_156"/>
<feBlend mode="normal" in="SourceGraphic" in2="effect1_backgroundBlur_0_156" result="shape"/>
</filter>
<filter id="filter4_b_0_156" x="406" y="477" width="149" height="63" filterUnits="userSpaceOnUse" color-interpolation-filters="sRGB">
<feFlood flood-opacity="0" result="BackgroundImageFix"/>
<feGaussianBlur in="BackgroundImageFix" stdDeviation="6"/>
<feComposite in2="SourceAlpha" operator="in" result="effect1_backgroundBlur_0_156"/>
<feBlend mode="normal" in="SourceGraphic" in2="effect1_backgroundBlur_0_156" result="shape"/>
</filter>
<filter id="filter5_b_0_156" x="293" y="433" width="61" height="61" filterUnits="userSpaceOnUse" color-interpolation-filters="sRGB">
<feFlood flood-opacity="0" result="BackgroundImageFix"/>
<feGaussianBlur in="BackgroundImageFix" stdDeviation="10"/>
<feComposite in2="SourceAlpha" operator="in" result="effect1_backgroundBlur_0_156"/>
<feBlend mode="normal" in="SourceGraphic" in2="effect1_backgroundBlur_0_156" result="shape"/>
</filter>
<filter id="filter6_b_0_156" x="32" y="136" width="149" height="63" filterUnits="userSpaceOnUse" color-interpolation-filters="sRGB">
<feFlood flood-opacity="0" result="BackgroundImageFix"/>
<feGaussianBlur in="BackgroundImageFix" stdDeviation="6"/>
<feComposite in2="SourceAlpha" operator="in" result="effect1_backgroundBlur_0_156"/>
<feBlend mode="normal" in="SourceGraphic" in2="effect1_backgroundBlur_0_156" result="shape"/>
</filter>
<filter id="filter7_b_0_156" x="252.5" y="94" width="61" height="61" filterUnits="userSpaceOnUse" color-interpolation-filters="sRGB">
<feFlood flood-opacity="0" result="BackgroundImageFix"/>
<feGaussianBlur in="BackgroundImageFix" stdDeviation="10"/>
<feComposite in2="SourceAlpha" operator="in" result="effect1_backgroundBlur_0_156"/>
<feBlend mode="normal" in="SourceGraphic" in2="effect1_backgroundBlur_0_156" result="shape"/>
</filter>
<filter id="filter8_b_0_156" x="-12" y="302" width="149" height="63" filterUnits="userSpaceOnUse" color-interpolation-filters="sRGB">
<feFlood flood-opacity="0" result="BackgroundImageFix"/>
<feGaussianBlur in="BackgroundImageFix" stdDeviation="6"/>
<feComposite in2="SourceAlpha" operator="in" result="effect1_backgroundBlur_0_156"/>
<feBlend mode="normal" in="SourceGraphic" in2="effect1_backgroundBlur_0_156" result="shape"/>
</filter>
<filter id="filter9_b_0_156" x="208.5" y="260" width="61" height="61" filterUnits="userSpaceOnUse" color-interpolation-filters="sRGB">
<feFlood flood-opacity="0" result="BackgroundImageFix"/>
<feGaussianBlur in="BackgroundImageFix" stdDeviation="10"/>
<feComposite in2="SourceAlpha" operator="in" result="effect1_backgroundBlur_0_156"/>
<feBlend mode="normal" in="SourceGraphic" in2="effect1_backgroundBlur_0_156" result="shape"/>
</filter>
</defs>
</svg>
